# xmcd
#
# Track frame offsets:
#	150
#	16500
#	36330
#	56933
#	75627
#	94177
#	111033
#	124719
#	137945
#	151740
#	168614
#	186345
#	215455
#	234500
#
# Disc length: 3332
#
# Revision: 1
# Processed by: cddbd v1.5.1PL0 Copyright (c) Steve Scherf et al.
# Submitted via: ExactAudioCopy v0.95a5
# Normalized: r0:TDELIM( - )
#
DISCID=ba0d020e
DTITLE=Various Artist - Old School Love Songs (Vol-5)
DYEAR=1999
DGENRE=R&B
TTITLE0=Emotions - Best Of My Love
TTITLE1=The Manhattans - Kiss and Say Goodbye
TTITLE2=L.T.D - Everytime I Turn Around- Back In Love Again
TTITLE3=Bill Withers - Lovely Day
TTITLE4=Deniece Williams - Its Gonna Take A Miracle
TTITLE5=Luther Vandross - Never Too Much
TTITLE6=The"Fuzz" - I Love You For All Seasons
TTITLE7=The Three Degrees - When Will I See You Again
TTITLE8=The O'Jays - Back Stabbers
TTITLE9=K.C. and The Sunshine Band - Please DonT Go
TTITLE10=War - DonT Let No One Get You Down
TTITLE11=M.F.S.B. - Love Is The Message
TTITLE12=Expose - Seasons Change
TTITLE13=Al Wilson - Show and Tell
EXTD=
EXTT0=
EXTT1=
EXTT2=
EXTT3=
EXTT4=
EXTT5=
EXTT6=
EXTT7=
EXTT8=
EXTT9=
EXTT10=
EXTT11=
EXTT12=
EXTT13=
PLAYORDER=
